<?xml version="1.0" standalone="no"?>
<!DOCTYPE svg PUBLIC "-//W3C//DTD SVG 20010904//EN"
 "http://www.w3.org/TR/2001/REC-SVG-20010904/DTD/svg10.dtd">
<svg version="1.0" xmlns="http://www.w3.org/2000/svg"
 width="641.000000pt" height="152.000000pt" viewBox="0 0 641.000000 152.000000"
 preserveAspectRatio="xMidYMid meet">

<g transform="translate(0.000000,152.000000) scale(0.100000,-0.100000)"
fill="#000000" stroke="none">
<path d="M857 1469 c-147 -35 -242 -150 -241 -294 1 -142 82 -247 224 -289
114 -34 235 -6 321 72 l52 48 -63 27 -63 28 -26 -25 c-78 -74 -209 -59 -278
31 -25 32 -28 45 -28 108 0 63 3 76 28 108 68 89 201 104 278 31 l26 -25 63
28 63 27 -52 48 c-80 73 -195 103 -304 77z"/>
<path d="M50 1175 l0 -295 225 0 225 0 0 50 0 49 -157 3 -158 3 -3 188 -2 187
155 0 155 0 0 55 0 55 -220 0 -220 0 0 -295z"/>
<path d="M1474 1446 c-112 -52 -174 -151 -174 -276 0 -97 27 -158 99 -223 84
-74 190 -96 302 -60 75 24 158 107 182 182 49 155 -20 316 -163 380 -66 30
-178 29 -246 -3z m216 -106 c0 -6 -38 -10 -95 -10 -57 0 -95 4 -95 10 0 6 38
10 95 10 57 0 95 -4 95 -10z m-160 -34 c0 -1 -5 -17 -11 -35 -8 -23 -17 -31
-35 -31 -29 0 -29 3 -7 41 10 16 25 29 35 29 10 0 18 -2 18 -4z m60 -31 c0
-32 -2 -35 -31 -35 -16 0 -28 4 -25 9 3 4 10 20 15 35 16 39 41 34 41 -9z m60
9 c15 -38 13 -44 -15 -44 -22 0 -25 4 -25 35 0 42 25 48 40 9z m57 9 c33 -43
35 -53 9 -53 -18 0 -27 8 -35 31 -14 39 -14 39 0 39 7 0 18 -8 26 -17z m-209
-100 c-2 -22 -8 -28 -28 -28 -20 0 -26 6 -28 28 -3 24 0 27 28 27 28 0 31 -3
28 -27z m92 10 c-1 -50 -53 -59 -58 -10 -3 24 0 27 27 27 23 0 31 -5 31 -17z
m78 -10 c-2 -22 -8 -28 -28 -28 -20 0 -26 6 -28 28 -3 24 0 27 28 27 28 0 31
-3 28 -27z m89 11 c8 -20 -21 -49 -41 -41 -9 4 -16 18 -16 32 0 20 5 25 25 25
14 0 28 -7 32 -16z m-194 -65 c18 1 45 1 75 1 9 -1 28 1 42 2 24 3 25 1 28
-65 l3 -68 -33 3 c-28 2 -34 7 -36 31 -4 34 -43 57 -66 38 -8 -7 -16 -25 -18
-39 -3 -24 -7 -27 -38 -27 l-35 0 -3 53 c-4 61 11 87 42 77 12 -4 29 -7 39 -6z
m57 -104 c0 -18 -5 -25 -20 -25 -15 0 -20 7 -20 25 0 18 5 25 20 25 15 0 20
-7 20 -25z"/>
<path d="M1510 1100 c0 -5 5 -10 10 -10 6 0 10 5 10 10 0 6 -4 10 -10 10 -5 0
-10 -4 -10 -10z"/>
<path d="M2050 1175 l0 -295 60 0 60 0 2 206 3 206 72 -174 71 -173 44 -3 44
-3 126 266 126 265 -54 0 -54 0 -90 -180 c-50 -100 -94 -179 -98 -176 -4 2
-41 83 -82 180 l-75 176 -77 0 -78 0 0 -295z"/>
<path d="M2840 1175 l0 -295 60 0 60 0 2 202 3 202 70 -172 70 -172 45 0 45 0
120 256 c66 141 122 260 123 265 2 5 -20 9 -50 9 l-53 0 -90 -180 c-49 -99
-92 -180 -95 -180 -3 0 -40 80 -81 178 l-76 177 -76 3 -77 3 0 -296z"/>
<path d="M3622 1258 c3 -201 4 -216 27 -261 46 -94 154 -140 279 -119 80 13
133 47 169 109 l28 48 3 218 3 217 -65 0 -66 0 0 -190 c0 -205 -7 -243 -51
-274 -35 -24 -110 -21 -144 6 -48 38 -55 70 -55 273 l0 185 -66 0 -65 0 3
-212z"/>
<path d="M4290 1175 l0 -295 60 0 60 0 2 192 3 192 125 -192 125 -191 68 0
c52 -1 66 2 61 12 -4 6 -92 139 -196 295 l-188 282 -60 0 -60 0 0 -295z"/>
<path d="M4690 1320 c0 -107 4 -160 14 -184 15 -36 82 -116 97 -116 5 0 9 101
9 225 l0 225 -60 0 -60 0 0 -150z"/>
<path d="M4970 1175 l0 -295 70 0 70 0 0 295 0 295 -70 0 -70 0 0 -295z"/>
<path d="M5230 1415 l0 -55 235 0 235 0 0 55 0 55 -235 0 -235 0 0 -55z"/>
<path d="M5790 1463 c0 -3 45 -94 100 -200 l100 -195 0 -94 0 -94 65 0 65 0 0
96 0 97 -102 198 -103 199 -62 0 c-35 0 -63 -3 -63 -7z"/>
<path d="M6146 1371 c-39 -78 -47 -104 -42 -127 8 -31 43 -74 60 -74 9 0 156
278 156 295 0 3 -28 5 -63 5 l-63 0 -48 -99z"/>
<path d="M5413 1303 c-10 -3 -13 -56 -13 -214 l0 -209 65 0 65 0 0 209 c0 208
0 209 -22 215 -27 7 -78 7 -95 -1z"/>
<path d="M3421 1265 c-17 -20 -42 -58 -56 -85 -23 -45 -25 -61 -25 -175 l0
-125 60 0 60 0 0 210 c0 116 -2 210 -4 210 -2 0 -18 -16 -35 -35z"/>
<path d="M2638 1273 c-9 -10 -30 -40 -47 -67 -31 -50 -31 -51 -31 -188 l0
-138 55 0 55 0 0 205 c0 113 -4 205 -8 205 -5 0 -16 -8 -24 -17z"/>
<path d="M287 1223 c-3 -5 -8 -29 -11 -55 l-7 -48 95 0 96 0 0 55 0 55 -84 0
c-47 0 -87 -3 -89 -7z"/>
<path d="M430 345 c0 -198 1 -205 20 -205 19 0 20 7 20 95 0 52 5 105 11 118
23 52 105 63 138 21 18 -23 21 -41 21 -130 l0 -104 26 0 27 0 -5 108 c-5 118
-14 144 -61 172 -51 32 -118 20 -149 -24 -4 -6 -8 26 -8 72 0 75 -2 82 -20 82
-19 0 -20 -7 -20 -205z"/>
<path d="M2270 345 c0 -198 1 -205 20 -205 19 0 20 7 20 103 1 106 6 124 47
145 35 19 72 14 98 -13 23 -23 25 -31 25 -130 0 -98 1 -105 20 -105 19 0 20 7
20 105 0 119 -12 155 -60 180 -39 20 -79 19 -117 -5 l-33 -20 0 75 c0 68 -2
75 -20 75 -19 0 -20 -7 -20 -205z"/>
<path d="M120 530 c-73 -14 -100 -42 -100 -103 0 -48 40 -80 128 -101 95 -24
132 -48 132 -86 0 -40 -36 -63 -103 -63 -63 -1 -107 19 -125 56 -9 18 -20 27
-30 25 -20 -4 -18 -32 5 -66 45 -71 246 -72 283 -2 7 12 12 39 12 58 0 49 -33
76 -125 103 -106 31 -127 40 -138 62 -9 15 -7 25 8 46 38 50 145 50 188 0 27
-33 55 -38 55 -11 0 53 -106 99 -190 82z"/>
<path d="M1951 529 c-74 -14 -111 -64 -91 -125 13 -37 62 -66 146 -84 98 -21
137 -65 101 -114 -19 -26 -90 -39 -140 -25 -49 13 -66 25 -78 56 -5 14 -17 23
-29 23 -17 0 -20 -4 -15 -22 21 -68 73 -100 165 -100 98 0 150 36 150 104 0
52 -32 82 -106 103 -152 42 -183 65 -147 113 38 51 150 49 191 -3 37 -46 70
-25 36 23 -31 45 -105 65 -183 51z"/>
<path d="M4069 530 c-49 -9 -100 -42 -123 -80 -23 -41 -32 -136 -16 -184 15
-45 53 -92 92 -112 42 -22 131 -20 176 4 34 17 82 72 82 93 0 21 -34 6 -69
-31 -36 -38 -41 -40 -99 -40 -51 0 -65 4 -93 27 -74 63 -80 174 -11 246 55 57
156 56 206 -3 13 -17 34 -30 46 -30 19 0 20 1 5 29 -30 59 -116 94 -196 81z"/>
<path d="M6270 490 c0 -49 -1 -50 -30 -50 -23 0 -30 -4 -30 -20 0 -16 7 -20
30 -20 l30 0 0 -130 c0 -123 1 -130 20 -130 19 0 20 7 20 130 l0 130 36 0 c28
0 35 3 32 18 -2 11 -14 18 -36 20 -31 3 -32 4 -32 53 0 42 -3 49 -20 49 -17 0
-20 -7 -20 -50z"/>
<path d="M860 421 c-55 -29 -75 -63 -75 -129 1 -96 52 -153 138 -154 91 -2
147 56 147 150 0 66 -25 113 -74 136 -45 21 -93 20 -136 -3z m126 -39 c31 -25
44 -55 44 -102 0 -34 -6 -48 -34 -76 -22 -22 -44 -34 -61 -34 -40 0 -94 37
-101 68 -3 15 -7 32 -9 39 -8 24 17 83 42 103 32 25 90 26 119 2z"/>
<path d="M1177 433 c-4 -3 -7 -98 -7 -210 l0 -203 25 0 c25 0 25 1 25 80 l0
81 28 -20 c77 -56 187 -12 211 84 34 135 -94 244 -206 176 -31 -19 -31 -19
-36 0 -5 19 -27 26 -40 12z m212 -64 c30 -29 35 -50 32 -109 -3 -34 -63 -90
-98 -90 -41 0 -91 35 -99 67 -3 15 -7 33 -9 40 -2 6 1 27 6 47 21 78 111 102
168 45z"/>
<path d="M2693 420 c-49 -29 -68 -65 -68 -129 0 -67 30 -122 75 -141 45 -19
109 -14 142 10 28 21 28 21 28 0 0 -13 7 -20 20 -20 19 0 20 7 20 150 0 143
-1 150 -20 150 -15 0 -20 -7 -20 -26 l0 -26 -31 26 c-38 32 -99 35 -146 6z
m148 -49 c23 -24 29 -38 29 -75 0 -58 -17 -94 -51 -112 -89 -45 -181 43 -149
141 25 77 116 101 171 46z"/>
<path d="M3030 290 c0 -140 1 -150 19 -150 16 0 19 11 23 90 5 78 9 95 33 125
16 21 39 38 56 42 20 4 29 12 29 24 0 35 -58 18 -97 -29 l-23 -27 0 38 c0 30
-4 37 -20 37 -19 0 -20 -7 -20 -150z"/>
<path d="M3319 417 c-66 -44 -86 -124 -50 -204 41 -88 163 -104 235 -30 29 30
30 32 10 35 -12 2 -39 -9 -60 -23 -29 -20 -45 -24 -68 -19 -45 10 -73 31 -85
65 l-10 29 125 0 124 0 0 33 c0 104 -133 173 -221 114z m124 -29 c25 -13 44
-35 50 -60 5 -16 -5 -18 -98 -18 -98 0 -103 1 -98 20 14 53 95 86 146 58z"/>
<path d="M4435 422 c-39 -24 -50 -38 -65 -85 -16 -52 2 -125 40 -162 68 -65
183 -46 226 37 21 41 18 127 -6 166 -36 59 -134 81 -195 44z m146 -53 c24 -26
29 -40 29 -81 0 -44 -4 -54 -34 -84 -23 -23 -43 -34 -62 -34 -42 0 -92 34
-100 67 -3 15 -7 33 -9 40 -2 6 1 27 6 47 22 78 116 103 170 45z"/>
<path d="M4760 290 c0 -143 1 -150 20 -150 19 0 20 7 20 103 1 106 6 124 47
145 35 19 72 14 98 -13 23 -23 25 -31 25 -130 0 -98 1 -105 20 -105 19 0 20 7
20 105 0 119 -12 155 -60 180 -39 20 -79 19 -117 -4 -31 -19 -31 -19 -36 0 -3
10 -12 19 -21 19 -14 0 -16 -19 -16 -150z"/>
<path d="M5130 290 c0 -141 1 -150 19 -150 17 0 19 10 23 106 3 102 4 107 31
130 31 27 81 31 109 10 28 -21 38 -62 38 -157 0 -82 1 -89 20 -89 19 0 20 7
20 95 0 141 -29 193 -113 202 -36 4 -48 1 -75 -22 l-32 -27 0 26 c0 19 -5 26
-20 26 -19 0 -20 -7 -20 -150z"/>
<path d="M5563 424 c-66 -33 -93 -127 -59 -209 35 -83 159 -104 227 -39 16 15
29 31 29 36 0 15 -37 8 -54 -11 -38 -41 -117 -33 -156 16 -39 49 -31 53 106
53 l127 0 -7 43 c-4 23 -14 52 -22 65 -38 57 -125 78 -191 46z m138 -53 c52
-53 42 -61 -71 -61 -55 0 -100 3 -100 8 1 18 29 56 51 68 42 23 87 17 120 -15z"/>
<path d="M5935 421 c-51 -23 -75 -65 -75 -131 0 -99 48 -150 143 -150 57 0 61
2 101 42 39 41 40 43 18 46 -15 2 -31 -5 -47 -22 -87 -94 -221 27 -160 144 31
60 107 69 157 20 33 -34 58 -39 58 -12 0 37 -71 82 -128 82 -15 0 -45 -9 -67
-19z"/>
<path d="M1565 168 c-3 -7 -11 -34 -19 -60 -13 -45 -13 -48 4 -48 22 0 23 1
49 68 l21 52 -25 0 c-14 0 -28 -6 -30 -12z"/>
<path d="M3636 168 c-3 -7 -9 -28 -15 -47 -15 -46 -14 -61 5 -61 12 0 64 93
64 115 0 11 -51 4 -54 -7z"/>
</g>
</svg>
